<?xml version="1.0" encoding="UTF-8" standalone="no"?>
<!-- Created with Inkscape (http://www.inkscape.org/) -->

<svg
   xmlns:dc="http://purl.org/dc/elements/1.1/"
   xmlns:cc="http://creativecommons.org/ns#"
   xmlns:rdf="http://www.w3.org/1999/02/22-rdf-syntax-ns#"
   xmlns:svg="http://www.w3.org/2000/svg"
   xmlns="http://www.w3.org/2000/svg"
   xmlns:inkscape="http://www.inkscape.org/namespaces/inkscape"
   version="1.1"
   width="990"
   height="765"
   id="svg2"
   xml:space="preserve"><metadata
     id="metadata8"><rdf:RDF><cc:Work
         rdf:about=""><dc:format>image/svg+xml</dc:format><dc:type
           rdf:resource="http://purl.org/dc/dcmitype/StillImage" /></cc:Work></rdf:RDF></metadata><defs
     id="defs6"><clipPath
       id="clipPath18"><path
         d="m 36.07091,36.13094 719.9999,0 0,540 -719.9999,0 0,-540 z"
         inkscape:connector-curvature="0"
         id="path20" /></clipPath></defs><g
     transform="matrix(1.25,0,0,-1.25,0,765)"
     id="g10"><g
       id="g12" /><g
       id="g14"><g
         clip-path="url(#clipPath18)"
         id="g16"><path
           d="m 36.0709,576.1309 719.9999,0 0,-539.99995 -719.9999,0 0,539.99995 z"
           inkscape:connector-curvature="0"
           id="path22"
           style="fill:#ffffff;fill-opacity:1;fill-rule:evenodd;stroke:none" /><path
           d="m 180.0709,505.1308 c 0,2.7614 2.2386,5.0001 5.0001,5.0001 l 85.9998,0 c 2.7614,0 5.0001,-2.2387 5.0001,-5.0001 l 0,-19.9998 c 0,-2.7615 -2.2387,-5.0001 -5.0001,-5.0001 l -85.9998,0 c -2.7615,0 -5.0001,2.2386 -5.0001,5.0001 l 0,19.9998 z"
           inkscape:connector-curvature="0"
           id="path24"
           style="fill:#c6e6e9;fill-opacity:1;fill-rule:evenodd;stroke:none" /><g
           transform="matrix(7.874014e-5,0,0,-7.874014e-5,180.0709,510.1309)"
           id="g26"><path
             d="M -0.00944409,63501.26 C -0.00944409,28430.53 28430.43,0.08958817 63500.97,0.08958817 l 1092198.03,0 c 35071,0 63501,28430.44041183 63501,63501.17041183 l 0,253997.74 c 0,35070.7 -28430,63501.2 -63501,63501.2 l -1092198.03,0 C 28430.43,381000.2 -0.00944409,352569.7 -0.00944409,317499 l 0,-253997.74 z"
             inkscape:connector-curvature="0"
             id="path28"
             style="fill:none;stroke:#000000;stroke-width:9525;stroke-linecap:butt;stroke-linejoin:round;stroke-miterlimit:10;stroke-opacity:1;stroke-dasharray:none" /></g><g
           transform="translate(188.7354,505.0664)"
           id="g30"><text
             transform="matrix(1,0,0,-1,0.4531097,-16)"
             id="text32"><tspan
               x="0 10.672 20.444799 30.2176 44.444801 48.889599 54.217602 59.545601 68.444801 73.772797"
               y="0"
               id="tspan34"
               style="font-size:16px;font-variant:normal;font-weight:bold;writing-mode:lr-tb;fill:#000000;fill-opacity:1;fill-rule:nonzero;stroke:none;font-family:Arial;-inkscape-font-specification:Arial-BoldMT">Submitted </tspan></text>
</g><path
           d="m 150.0709,537.1309 39.8502,0 0,27 76.2995,0 0,-27 39.8503,0 -78,-27 -78,27 z"
           inkscape:connector-curvature="0"
           id="path36"
           style="fill:#c6e6e9;fill-opacity:1;fill-rule:evenodd;stroke:none" /><g
           transform="matrix(7.874014e-5,0,0,-7.874014e-5,150.0709,564.1309)"
           id="g38"><path
             d="M 7.488132e-4,342900 506098.1,342900 l 0,-342900.01588058 969003.9,0 0,342900.01588058 506098,0 L 990599.9,685800.1 7.488132e-4,342900 z"
             inkscape:connector-curvature="0"
             id="path40"
             style="fill:none;stroke:#000000;stroke-width:9525;stroke-linecap:butt;stroke-linejoin:miter;stroke-miterlimit:8;stroke-opacity:1;stroke-dasharray:none" /></g><g
           transform="translate(197.1211,560.5309)"
           id="g42"><text
             transform="matrix(1,0,0,-1,0,-16)"
             id="text44"><tspan
               x="0 10.672 19.571199 24.016001 32.915199 38.243198 42.688 51.5872 57.931198"
               y="0"
               id="tspan46"
               style="font-size:16px;font-variant:normal;font-weight:normal;writing-mode:lr-tb;fill:#000000;fill-opacity:1;fill-rule:nonzero;stroke:none;font-family:Arial;-inkscape-font-specification:ArialMT">Enter an </tspan></text>
</g><g
           transform="translate(197.1211,541.5309)"
           id="g48"><text
             transform="matrix(1,0,0,-1,12.5117,-16)"
             id="text50"><tspan
               x="0 3.5552001 11.5552 19.555201 28.454399 32.9072"
               y="0"
               id="tspan52"
               style="font-size:16px;font-variant:normal;font-weight:normal;writing-mode:lr-tb;fill:#000000;fill-opacity:1;fill-rule:nonzero;stroke:none;font-family:Arial;-inkscape-font-specification:ArialMT">issue </tspan></text>
</g><path
           d="m 174.0709,421.1308 c 0,2.7615 2.2386,5.0001 5.0001,5.0001 l 97.9998,0 c 2.7614,0 5.0001,-2.2386 5.0001,-5.0001 l 0,-19.9998 c 0,-2.7615 -2.2387,-5.0001 -5.0001,-5.0001 l -97.9998,0 c -2.7615,0 -5.0001,2.2386 -5.0001,5.0001 l 0,19.9998 z"
           inkscape:connector-curvature="0"
           id="path54"
           style="fill:#c6e6e9;fill-opacity:1;fill-rule:evenodd;stroke:none" /><g
           transform="matrix(7.874014e-5,0,0,-7.874014e-5,174.0709,426.1309)"
           id="g56"><path
             d="M -0.02116284,63501.04 C -0.02116284,28430.3 28430.42,-0.1339226 63500.96,-0.1339226 l 1244598.04,0 c 35071,0 63501,28430.4339226 63501,63501.1739226 l 0,253997.76 c 0,35070.7 -28430,63501.1 -63501,63501.1 l -1244598.04,0 C 28430.42,380999.9 -0.02116284,352569.5 -0.02116284,317498.8 l 0,-253997.76 z"
             inkscape:connector-curvature="0"
             id="path58"
             style="fill:none;stroke:#000000;stroke-width:9525;stroke-linecap:butt;stroke-linejoin:round;stroke-miterlimit:10;stroke-opacity:1;stroke-dasharray:none" /></g><g
           transform="translate(182.7354,421.0664)"
           id="g60"><text
             transform="matrix(1,0,0,-1,5.562485,-16)"
             id="text62"><tspan
               x="0 11.5552 21.327999 31.1008 36.428799 40.8736 47.1008 61.327999 70.227203 75.555199"
               y="0"
               id="tspan64"
               style="font-size:16px;font-variant:normal;font-weight:bold;writing-mode:lr-tb;fill:#000000;fill-opacity:1;fill-rule:nonzero;stroke:none;font-family:Arial;-inkscape-font-specification:Arial-BoldMT">Confirmed </tspan></text>
</g><path
           d="m 642.0708,517.1308 c 0,2.7615 2.2386,5.0001 5.0001,5.0001 l 79.9998,0 c 2.7615,0 5.0001,-2.2386 5.0001,-5.0001 l 0,-19.9998 c 0,-2.7615 -2.2386,-5.0001 -5.0001,-5.0001 l -79.9998,0 c -2.7615,0 -5.0001,2.2386 -5.0001,5.0001 l 0,19.9998 z"
           inkscape:connector-curvature="0"
           id="path66"
           style="fill:#c6e6e9;fill-opacity:1;fill-rule:evenodd;stroke:none" /><g
           transform="matrix(7.874014e-5,0,0,-7.874014e-5,642.0708,522.1309)"
           id="g68"><path
             d="M -0.07603359,63500.85 C -0.07603359,28430.12 28429.98,0.06615067 63500.71,0.06615067 l 1015997.29,0 c 35071,0 63502,28430.05384933 63502,63500.78384933 l 0,253998.05 c 0,35070.8 -28431,63501.2 -63502,63501.2 l -1015997.29,0 C 28429.98,381000.1 -0.07603359,352569.7 -0.07603359,317498.9 l 0,-253998.05 z"
             inkscape:connector-curvature="0"
             id="path70"
             style="fill:none;stroke:#000000;stroke-width:9525;stroke-linecap:butt;stroke-linejoin:round;stroke-miterlimit:10;stroke-opacity:1;stroke-dasharray:none" /></g><g
           transform="translate(650.7353,517.0664)"
           id="g72"><text
             transform="matrix(1,0,0,-1,3.214828,-16)"
             id="text74"><tspan
               x="0 11.5552 20.454399 24.8992 33.798401 42.697601 48.0256 56.924801 62.2528"
               y="0"
               id="tspan76"
               style="font-size:16px;font-variant:normal;font-weight:bold;writing-mode:lr-tb;fill:#000000;fill-opacity:1;fill-rule:nonzero;stroke:none;font-family:Arial;-inkscape-font-specification:Arial-BoldMT">Rejected </tspan></text>
</g><path
           d="m 654.0709,421.1308 c 0,2.7615 2.2385,5.0001 5,5.0001 l 79.9998,0 c 2.7615,0 5.0002,-2.2386 5.0002,-5.0001 l 0,-19.9998 c 0,-2.7615 -2.2387,-5.0001 -5.0002,-5.0001 l -79.9998,0 c -2.7615,0 -5,2.2386 -5,5.0001 l 0,19.9998 z"
           inkscape:connector-curvature="0"
           id="path78"
           style="fill:#c6e6e9;fill-opacity:1;fill-rule:evenodd;stroke:none" /><g
           transform="matrix(7.874014e-5,0,0,-7.874014e-5,654.0709,426.1309)"
           id="g80"><path
             d="M -0.2774495,63501.04 C -0.2774495,28430.3 28429.78,-0.1339226 63500.51,-0.1339226 l 1015997.49,0 c 35071,0 63502,28430.4339226 63502,63501.1739226 l 0,253997.76 c 0,35070.7 -28431,63501.1 -63502,63501.1 l -1015997.49,0 C 28429.78,380999.9 -0.2774495,352569.5 -0.2774495,317498.8 l 0,-253997.76 z"
             inkscape:connector-curvature="0"
             id="path82"
             style="fill:none;stroke:#000000;stroke-width:9525;stroke-linecap:butt;stroke-linejoin:round;stroke-miterlimit:10;stroke-opacity:1;stroke-dasharray:none" /></g><g
           transform="translate(662.7353,421.0664)"
           id="g84"><text
             transform="matrix(1,0,0,-1,8.113266,-16)"
             id="text86"><tspan
               x="0 13.328 22.2272 28.454399 38.2272 47.1264 52.454399"
               y="0"
               id="tspan88"
               style="font-size:16px;font-variant:normal;font-weight:bold;writing-mode:lr-tb;fill:#000000;fill-opacity:1;fill-rule:nonzero;stroke:none;font-family:Arial;-inkscape-font-specification:Arial-BoldMT">Merged </tspan></text>
</g><path
           d="m 654.0709,301.1308 c 0,2.7615 2.2385,5.0001 5,5.0001 l 79.9998,0 c 2.7615,0 5.0002,-2.2386 5.0002,-5.0001 l 0,-19.9998 c 0,-2.7615 -2.2387,-5.0001 -5.0002,-5.0001 l -79.9998,0 c -2.7615,0 -5,2.2386 -5,5.0001 l 0,19.9998 z"
           inkscape:connector-curvature="0"
           id="path90"
           style="fill:#c6e6e9;fill-opacity:1;fill-rule:evenodd;stroke:none" /><g
           transform="matrix(7.874014e-5,0,0,-7.874014e-5,654.0709,306.1309)"
           id="g92"><path
             d="M -0.2774495,63501.27 C -0.2774495,28430.54 28429.78,0.1004524 63500.51,0.1004524 l 1015997.49,0 c 35071,0 63502,28430.4395476 63502,63501.1695476 l 0,253997.73 c 0,35070.7 -28431,63501.2 -63502,63501.2 l -1015997.49,0 C 28429.78,381000.2 -0.2774495,352569.7 -0.2774495,317499 l 0,-253997.73 z"
             inkscape:connector-curvature="0"
             id="path94"
             style="fill:none;stroke:#000000;stroke-width:9525;stroke-linecap:butt;stroke-linejoin:round;stroke-miterlimit:10;stroke-opacity:1;stroke-dasharray:none" /></g><g
           transform="translate(662.7353,301.0664)"
           id="g96"><text
             transform="matrix(1,0,0,-1,0.9921722,-16)"
             id="text98"><tspan
               x="0 11.5552 20.454399 29.3536 39.132801 43.584 52.4832 61.382401 66.7136"
               y="0"
               id="tspan100"
               style="font-size:16px;font-variant:normal;font-weight:bold;writing-mode:lr-tb;fill:#000000;fill-opacity:1;fill-rule:nonzero;stroke:none;font-family:Arial;-inkscape-font-specification:Arial-BoldMT">Resolved </tspan></text>
</g><path
           d="m 258.0709,463.1308 c 0,2.7614 2.2386,5.0001 5.0001,5.0001 l 79.9998,0 c 2.7614,0 5,-2.2387 5,-5.0001 l 0,-19.9998 c 0,-2.7614 -2.2386,-5 -5,-5 l -79.9998,0 c -2.7615,0 -5.0001,2.2386 -5.0001,5 l 0,19.9998 z"
           inkscape:connector-curvature="0"
           id="path102"
           style="fill:#c6e6e9;fill-opacity:1;fill-rule:evenodd;stroke:none" /><g
           transform="matrix(7.874014e-5,0,0,-7.874014e-5,258.0709,468.1309)"
           id="g104"><path
             d="M -0.05088699,63501.34 C -0.05088699,28430.61 28430.39,0.1716194 63501.12,0.1716194 l 1015997.88,0 c 35071,0 63501,28430.4383806 63501,63501.1683806 l 0,253996.96 c 0,35070.3 -28430,63500.8 -63501,63500.8 l -1015997.88,0 C 28430.39,380999.1 -0.05088699,352568.6 -0.05088699,317498.3 l 0,-253996.96 z"
             inkscape:connector-curvature="0"
             id="path106"
             style="fill:none;stroke:#000000;stroke-width:9525;stroke-linecap:butt;stroke-linejoin:round;stroke-miterlimit:10;stroke-opacity:1;stroke-dasharray:none" /></g><g
           transform="translate(266.7354,459.5309)"
           id="g108"><text
             transform="matrix(1,0,0,-1,2.789047,-9.599991)"
             id="text110"><tspan
               x="0 13.328 23.1008 29.327999 38.2272 42.672001 52.444801 57.7728"
               y="0"
               id="tspan112"
               style="font-size:16px;font-variant:normal;font-weight:bold;writing-mode:lr-tb;fill:#000000;fill-opacity:1;fill-rule:nonzero;stroke:none;font-family:Arial;-inkscape-font-specification:Arial-BoldMT">MoreInfo</tspan></text>
</g><g
           transform="translate(266.7354,459.5309)"
           id="g114" /><path
           d="m 366.0709,421.1308 c 0,2.7615 2.2386,5.0001 5.0001,5.0001 l 73.9998,0 c 2.7614,0 5.0001,-2.2386 5.0001,-5.0001 l 0,-19.9998 c 0,-2.7615 -2.2387,-5.0001 -5.0001,-5.0001 l -73.9998,0 c -2.7615,0 -5.0001,2.2386 -5.0001,5.0001 l 0,19.9998 z"
           inkscape:connector-curvature="0"
           id="path116"
           style="fill:#c6e6e9;fill-opacity:1;fill-rule:evenodd;stroke:none" /><g
           transform="matrix(7.874014e-5,0,0,-7.874014e-5,366.0709,426.1309)"
           id="g118"><path
             d="M 0.1600505,63501.04 C 0.1600505,28430.3 28430.6,-0.1339226 63501.33,-0.1339226 l 939797.67,0 c 35071,0 63501,28430.4339226 63501,63501.1739226 l 0,253997.76 c 0,35070.7 -28430,63501.1 -63501,63501.1 l -939797.67,0 C 28430.6,380999.9 0.1600505,352569.5 0.1600505,317498.8 l 0,-253997.76 z"
             inkscape:connector-curvature="0"
             id="path120"
             style="fill:none;stroke:#000000;stroke-width:9525;stroke-linecap:butt;stroke-linejoin:round;stroke-miterlimit:10;stroke-opacity:1;stroke-dasharray:none" /></g><g
           transform="translate(374.7353,421.0664)"
           id="g122"><text
             transform="matrix(1,0,0,-1,0.660141,-16)"
             id="text124"><tspan
               x="0 11.5552 20.454399 25.7824 34.681599 40.908798 47.136002 56.035198 61.363201"
               y="0"
               id="tspan126"
               style="font-size:16px;font-variant:normal;font-weight:bold;writing-mode:lr-tb;fill:#000000;fill-opacity:1;fill-rule:nonzero;stroke:none;font-family:Arial;-inkscape-font-specification:Arial-BoldMT">Deferred </tspan></text>
</g><path
           d="m 183.0709,108.8964 c 0,2.7615 2.2386,5.0001 5.0001,5.0001 l 79.9998,0 c 2.7614,0 5.0001,-2.2386 5.0001,-5.0001 l 0,-19.99981 c 0,-2.76147 -2.2387,-5.00008 -5.0001,-5.00008 l -79.9998,0 c -2.7615,0 -5.0001,2.23861 -5.0001,5.00008 l 0,19.99981 z"
           inkscape:connector-curvature="0"
           id="path128"
           style="fill:#c6e6e9;fill-opacity:1;fill-rule:evenodd;stroke:none" /><g
           transform="matrix(7.874014e-5,0,0,-7.874014e-5,183.0709,113.8965)"
           id="g130"><path
             d="M -0.00358471,63500.99 C -0.00358471,28430.35 28430.44,0.01030345 63500.98,0.01030345 l 1015998.02,0 c 35071,0 63501,28430.33969655 63501,63500.97969655 l 0,253998.01 c 0,35070.6 -28430,63501 -63501,63501 l -1015998.02,0 C 28430.44,381000 -0.00358471,352569.6 -0.00358471,317499 l 0,-253998.01 z"
             inkscape:connector-curvature="0"
             id="path132"
             style="fill:none;stroke:#000000;stroke-width:9525;stroke-linecap:butt;stroke-linejoin:round;stroke-miterlimit:10;stroke-opacity:1;stroke-dasharray:none" /></g><g
           transform="translate(191.7354,108.832)"
           id="g134"><text
             transform="matrix(1,0,0,-1,1.429672,-16)"
             id="text136"><tspan
               x="0 11.5552 20.454399 24.9056 33.804798 42.703999 51.603199 60.502399 65.833603"
               y="0"
               id="tspan138"
               style="font-size:16px;font-variant:normal;font-weight:bold;writing-mode:lr-tb;fill:#000000;fill-opacity:1;fill-rule:nonzero;stroke:none;font-family:Arial;-inkscape-font-specification:Arial-BoldMT">Released </tspan></text>
</g><path
           d="m 324.0709,373.1308 c 0,2.7615 2.2386,5.0001 5.0001,5.0001 l 97.9998,0 c 2.7614,0 5,-2.2386 5,-5.0001 l 0,-19.9998 c 0,-2.7615 -2.2386,-5.0001 -5,-5.0001 l -97.9998,0 c -2.7615,0 -5.0001,2.2386 -5.0001,5.0001 l 0,19.9998 z"
           inkscape:connector-curvature="0"
           id="path140"
           style="fill:#c6e6e9;fill-opacity:1;fill-rule:evenodd;stroke:none" /><g
           transform="matrix(7.874014e-5,0,0,-7.874014e-5,324.0709,378.1309)"
           id="g142"><path
             d="M -0.1719807,63501.13 C -0.1719807,28430.4 28430.27,-0.04017264 63501,-0.04017264 l 1244598,0 c 35071,0 63501,28430.44017264 63501,63501.17017264 l 0,253997.67 c 0,35070.8 -28430,63501.2 -63501,63501.2 l -1244598,0 C 28430.27,381000 -0.1719807,352569.6 -0.1719807,317498.8 l 0,-253997.67 z"
             inkscape:connector-curvature="0"
             id="path144"
             style="fill:none;stroke:#000000;stroke-width:9525;stroke-linecap:butt;stroke-linejoin:round;stroke-miterlimit:10;stroke-opacity:1;stroke-dasharray:none" /></g><g
           transform="translate(332.7354,373.0664)"
           id="g146"><text
             transform="matrix(1,0,0,-1,14.44139,-16)"
             id="text148"><tspan
               x="0 11.5552 16.006399 25.785601 34.684799 43.584 52.4832 57.8144"
               y="0"
               id="tspan150"
               style="font-size:16px;font-variant:normal;font-weight:bold;writing-mode:lr-tb;fill:#000000;fill-opacity:1;fill-rule:nonzero;stroke:none;font-family:Arial;-inkscape-font-specification:Arial-BoldMT">Blocked </tspan></text>
</g><path
           d="m 174.0709,373.1308 c 0,2.7615 2.2386,5.0001 5.0001,5.0001 l 97.9998,0 c 2.7614,0 5.0001,-2.2386 5.0001,-5.0001 l 0,-19.9998 c 0,-2.7615 -2.2387,-5.0001 -5.0001,-5.0001 l -97.9998,0 c -2.7615,0 -5.0001,2.2386 -5.0001,5.0001 l 0,19.9998 z"
           inkscape:connector-curvature="0"
           id="path152"
           style="fill:#c6e6e9;fill-opacity:1;fill-rule:evenodd;stroke:none" /><g
           transform="matrix(7.874014e-5,0,0,-7.874014e-5,174.0709,378.1309)"
           id="g154"><path
             d="M -0.02116284,63501.13 C -0.02116284,28430.4 28430.42,-0.04017264 63500.96,-0.04017264 l 1244598.04,0 c 35071,0 63501,28430.44017264 63501,63501.17017264 l 0,253997.67 c 0,35070.8 -28430,63501.2 -63501,63501.2 l -1244598.04,0 C 28430.42,381000 -0.02116284,352569.6 -0.02116284,317498.8 l 0,-253997.67 z"
             inkscape:connector-curvature="0"
             id="path156"
             style="fill:none;stroke:#000000;stroke-width:9525;stroke-linecap:butt;stroke-linejoin:round;stroke-miterlimit:10;stroke-opacity:1;stroke-dasharray:none" /></g><g
           transform="translate(182.7354,373.0664)"
           id="g158"><text
             transform="matrix(1,0,0,-1,21.55077,-16)"
             id="text160"><tspan
               x="0 11.5552 20.454399 25.7824 30.2272 39.1264 43.579201"
               y="0"
               id="tspan162"
               style="font-size:16px;font-variant:normal;font-weight:bold;writing-mode:lr-tb;fill:#000000;fill-opacity:1;fill-rule:nonzero;stroke:none;font-family:Arial;-inkscape-font-specification:Arial-BoldMT">Active </tspan></text>
</g><path
           d="m 174.0709,295.1308 c 0,2.7615 2.2386,5.0001 5.0001,5.0001 l 97.9998,0 c 2.7614,0 5.0001,-2.2386 5.0001,-5.0001 l 0,-19.9998 c 0,-2.7615 -2.2387,-5.0001 -5.0001,-5.0001 l -97.9998,0 c -2.7615,0 -5.0001,2.2386 -5.0001,5.0001 l 0,19.9998 z"
           inkscape:connector-curvature="0"
           id="path164"
           style="fill:#c6e6e9;fill-opacity:1;fill-rule:evenodd;stroke:none" /><g
           transform="matrix(7.874014e-5,0,0,-7.874014e-5,174.0709,300.1309)"
           id="g166"><path
             d="M -0.02116284,63501.29 C -0.02116284,28430.55 28430.42,0.1121711 63500.96,0.1121711 l 1244598.04,0 c 35071,0 63501,28430.4378289 63501,63501.1778289 l 0,253997.71 c 0,35070.7 -28430,63501.2 -63501,63501.2 l -1244598.04,0 C 28430.42,381000.2 -0.02116284,352569.7 -0.02116284,317499 l 0,-253997.71 z"
             inkscape:connector-curvature="0"
             id="path168"
             style="fill:none;stroke:#000000;stroke-width:9525;stroke-linecap:butt;stroke-linejoin:round;stroke-miterlimit:10;stroke-opacity:1;stroke-dasharray:none" /></g><g
           transform="translate(182.7354,295.0664)"
           id="g170"><text
             transform="matrix(1,0,0,-1,12.67186,-16)"
             id="text172"><tspan
               x="0 9.7728004 14.2176 23.9904 28.4352 37.327999 47.1008 55.993599 61.318401"
               y="0"
               id="tspan174"
               style="font-size:16px;font-variant:normal;font-weight:bold;writing-mode:lr-tb;fill:#000000;fill-opacity:1;fill-rule:nonzero;stroke:none;font-family:Arial;-inkscape-font-specification:Arial-BoldMT">Finished </tspan></text>
</g><path
           d="m 174.0709,229.1308 c 0,2.7615 2.2386,5.0001 5.0001,5.0001 l 97.9998,0 c 2.7614,0 5.0001,-2.2386 5.0001,-5.0001 l 0,-19.9998 c 0,-2.7615 -2.2387,-5.0001 -5.0001,-5.0001 l -97.9998,0 c -2.7615,0 -5.0001,2.2386 -5.0001,5.0001 l 0,19.9998 z"
           inkscape:connector-curvature="0"
           id="path176"
           style="fill:#c6e6e9;fill-opacity:1;fill-rule:evenodd;stroke:none" /><g
           transform="matrix(7.874014e-5,0,0,-7.874014e-5,174.0709,234.1309)"
           id="g178"><path
             d="M -0.02116284,63501.03 C -0.02116284,28430.49 28430.42,0.04729071 63500.96,0.04729071 l 1244598.04,0 c 35071,0 63501,28430.44270929 63501,63500.98270929 l 0,253998.07 c 0,35070.6 -28430,63501 -63501,63501 l -1244598.04,0 c -35070.54,0 -63500.98116284,-28430.4 -63500.98116284,-63501 l 0,-253998.07 z"
             inkscape:connector-curvature="0"
             id="path180"
             style="fill:none;stroke:#000000;stroke-width:9525;stroke-linecap:butt;stroke-linejoin:round;stroke-miterlimit:10;stroke-opacity:1;stroke-dasharray:none" /></g><g
           transform="translate(182.7354,229.0664)"
           id="g182"><text
             transform="matrix(1,0,0,-1,8.656235,-16)"
             id="text184"><tspan
               x="0 11.5552 20.454399 29.3536 33.804798 42.703999 55.155201 64.054398 69.385597"
               y="0"
               id="tspan186"
               style="font-size:16px;font-variant:normal;font-weight:bold;writing-mode:lr-tb;fill:#000000;fill-opacity:1;fill-rule:nonzero;stroke:none;font-family:Arial;-inkscape-font-specification:Arial-BoldMT">Reviewed </tspan></text>
</g><path
           d="m 174.0709,169.1308 c 0,2.7615 2.2386,5.0001 5.0001,5.0001 l 97.9998,0 c 2.7614,0 5.0001,-2.2386 5.0001,-5.0001 l 0,-19.9998 c 0,-2.7615 -2.2387,-5.0001 -5.0001,-5.0001 l -97.9998,0 c -2.7615,0 -5.0001,2.2386 -5.0001,5.0001 l 0,19.9998 z"
           inkscape:connector-curvature="0"
           id="path188"
           style="fill:#c6e6e9;fill-opacity:1;fill-rule:evenodd;stroke:none" /><g
           transform="matrix(7.874014e-5,0,0,-7.874014e-5,174.0709,174.1309)"
           id="g190"><path
             d="M -0.02116284,63500.89 C -0.02116284,28430.35 28430.42,-0.08552179 63500.96,-0.08552179 l 1244598.04,0 c 35071,0 63501,28430.43552179 63501,63500.97552179 l 0,253998.11 c 0,35070.5 -28430,63501 -63501,63501 l -1244598.04,0 C 28430.42,381000 -0.02116284,352569.5 -0.02116284,317499 l 0,-253998.11 z"
             inkscape:connector-curvature="0"
             id="path192"
             style="fill:none;stroke:#000000;stroke-width:9525;stroke-linecap:butt;stroke-linejoin:round;stroke-miterlimit:10;stroke-opacity:1;stroke-dasharray:none" /></g><g
           transform="translate(182.7354,169.0664)"
           id="g194"><text
             transform="matrix(1,0,0,-1,3.785141,-16)"
             id="text196"><tspan
               x="0 11.5552 21.327999 35.555199 49.782398 54.2272 59.555199 64.883202 73.782402 79.110397"
               y="0"
               id="tspan198"
               style="font-size:16px;font-variant:normal;font-weight:bold;writing-mode:lr-tb;fill:#000000;fill-opacity:1;fill-rule:nonzero;stroke:none;font-family:Arial;-inkscape-font-specification:Arial-BoldMT">Committed </tspan></text>
</g><g
           transform="matrix(7.874014e-5,0,0,-7.874014e-5,228.0709,480.1309)"
           id="g200"><path
             d="m -0.1656941,0.1481819 0,660595.0518181"
             inkscape:connector-curvature="0"
             id="path202"
             style="fill:none;stroke:#000000;stroke-width:9525;stroke-linecap:butt;stroke-linejoin:round;stroke-miterlimit:10;stroke-opacity:1;stroke-dasharray:none" /></g><path
           d="m 228.0709,426.1309 -4.3638,7.4807 0,0 c -0.2783,0.4771 -0.1171,1.0894 0.3599,1.3677 l 0,0 c 0.4771,0.2783 1.0894,0.1171 1.3677,-0.3599 l 2.6362,-4.5192 2.6362,4.5192 0,0 c 0.2783,0.477 0.8906,0.6382 1.3677,0.3599 0,0 0,0 0,0 l 0,0 c 0.477,-0.2783 0.6381,-0.8906 0.3599,-1.3677 l -4.3638,-7.4807 z"
           inkscape:connector-curvature="0"
           id="path204"
           style="fill:#000000;fill-opacity:1;fill-rule:evenodd;stroke:none" /><g
           transform="matrix(7.874014e-5,0,0,-7.874014e-5,228.0709,480.1309)"
           id="g206"><path
             d="M -0.1656941,0.1481819 927611.8,148418.2"
             inkscape:connector-curvature="0"
             id="path208"
             style="fill:none;stroke:#000000;stroke-width:9525;stroke-linecap:butt;stroke-linejoin:round;stroke-miterlimit:10;stroke-opacity:1;stroke-dasharray:none" /></g><path
           d="m 303.0709,468.1308 -8.0763,-3.127 0,0 c -0.515,-0.1994 -1.0941,0.0564 -1.2936,0.5714 l 0,0 c -0.1994,0.515 0.0565,1.0942 0.5715,1.2936 l 4.879,1.8892 -4.046,3.317 0,0 c -0.4271,0.3502 -0.4895,0.9803 -0.1393,1.4074 0,0 0,0 0,0 l 0,0 c 0.3501,0.4271 0.9802,0.4895 1.4073,0.1393 l 6.6974,-5.4909 z"
           inkscape:connector-curvature="0"
           id="path210"
           style="fill:#000000;fill-opacity:1;fill-rule:evenodd;stroke:none" /><g
           transform="matrix(7.874014e-5,0,0,7.874014e-5,480.0708,438.1309)"
           id="g212"><path
             d="M -0.00486654,0.1573601 2034211,866423.4"
             inkscape:connector-curvature="0"
             id="path214"
             style="fill:none;stroke:#000000;stroke-width:9525;stroke-linecap:butt;stroke-linejoin:round;stroke-miterlimit:10;stroke-opacity:1;stroke-dasharray:none" /></g><path
           d="m 642.0709,507.1309 -8.5925,1.0833 0,0 c -0.548,0.0691 -1.0482,-0.3191 -1.1173,-0.867 l 0,0 c -0.069,-0.548 0.3191,-1.0482 0.8671,-1.1173 l 5.1908,-0.6544 -3.1247,-4.1963 0,0 c -0.3299,-0.443 -0.2382,-1.0695 0.2048,-1.3993 0,0 0,0 0,0 l 0,0 c 0.4429,-0.3299 1.0694,-0.2382 1.3993,0.2048 l 5.1725,6.9462 z"
           inkscape:connector-curvature="0"
           id="path216"
           style="fill:#000000;fill-opacity:1;fill-rule:evenodd;stroke:none" /><g
           transform="matrix(7.874014e-5,0,0,-7.874014e-5,474.0709,438.1309)"
           id="g218"><path
             d="M -0.129012,-0.1573601 2261074,339161"
             inkscape:connector-curvature="0"
             id="path220"
             style="fill:none;stroke:#000000;stroke-width:9525;stroke-linecap:butt;stroke-linejoin:round;stroke-miterlimit:10;stroke-opacity:1;stroke-dasharray:none" /></g><path
           d="m 654.0709,411.1309 -8.0454,-3.2058 0,0 c -0.513,-0.2045 -1.0947,0.0458 -1.2991,0.5588 l 0,0 c -0.2044,0.513 0.0458,1.0947 0.5588,1.2991 l 4.8602,1.9367 -4.0781,3.2774 0,0 c -0.4305,0.346 -0.499,0.9754 -0.1531,1.4059 0,0 0,0 0,0 l 0,0 c 0.346,0.4305 0.9754,0.4991 1.4059,0.1531 l 6.7508,-5.4252 z"
           inkscape:connector-curvature="0"
           id="path222"
           style="fill:#000000;fill-opacity:1;fill-rule:evenodd;stroke:none" /><g
           transform="matrix(7.874014e-5,0,0,-7.874014e-5,480.0708,438.1309)"
           id="g224"><path
             d="M -0.00486654,-0.1573601 2190546,1850634"
             inkscape:connector-curvature="0"
             id="path226"
             style="fill:none;stroke:#000000;stroke-width:9525;stroke-linecap:butt;stroke-linejoin:round;stroke-miterlimit:10;stroke-opacity:1;stroke-dasharray:none" /></g><path
           d="m 654.0708,291.1309 -8.5306,1.4943 0,0 c -0.544,0.0953 -0.9078,0.6135 -0.8125,1.1575 l 0,0 c 0.0953,0.544 0.6135,0.9078 1.1576,0.8125 l 5.1534,-0.9027 -1.7509,4.9302 0,0 c -0.1848,0.5205 0.0873,1.0922 0.6077,1.277 0,0 0,0 0,0 l 0,0 c 0.5205,0.1849 1.0922,-0.0872 1.277,-0.6076 l 2.8983,-8.1612 z"
           inkscape:connector-curvature="0"
           id="path228"
           style="fill:#000000;fill-opacity:1;fill-rule:evenodd;stroke:none" /><g
           transform="matrix(7.874014e-5,0,0,-7.874014e-5,228.0709,396.1309)"
           id="g230"><path
             d="m -0.1656941,-0.07532889 0,203394.97532889"
             inkscape:connector-curvature="0"
             id="path232"
             style="fill:none;stroke:#000000;stroke-width:9525;stroke-linecap:butt;stroke-linejoin:round;stroke-miterlimit:10;stroke-opacity:1;stroke-dasharray:none" /></g><path
           d="m 228.0709,378.1309 -4.3638,7.4808 0,0 c -0.2783,0.477 -0.1171,1.0893 0.3599,1.3676 l 0,0 c 0.4771,0.2783 1.0894,0.1172 1.3677,-0.3599 l 2.6362,-4.5192 2.6362,4.5192 0,0 c 0.2783,0.4771 0.8906,0.6382 1.3677,0.3599 0,0 0,0 0,0 l 0,0 c 0.477,-0.2783 0.6381,-0.8906 0.3599,-1.3676 l -4.3638,-7.4808 z"
           inkscape:connector-curvature="0"
           id="path234"
           style="fill:#000000;fill-opacity:1;fill-rule:evenodd;stroke:none" /><g
           transform="matrix(7.874014e-5,0,0,-7.874014e-5,282.0709,411.1309)"
           id="g236"><path
             d="M -0.1164387,-0.1046258 516802.5,590631.4"
             inkscape:connector-curvature="0"
             id="path238"
             style="fill:none;stroke:#000000;stroke-width:9525;stroke-linecap:butt;stroke-linejoin:round;stroke-miterlimit:10;stroke-opacity:1;stroke-dasharray:none" /></g><path
           d="m 324.0709,363.1309 -8.2102,2.7563 0,0 c -0.5236,0.1757 -0.8055,0.7427 -0.6297,1.2662 l 0,0 c 0.1757,0.5236 0.7427,0.8056 1.2662,0.6298 l 4.9599,-1.6651 -0.992,5.137 0,0 c -0.1047,0.5423 0.25,1.0668 0.7923,1.1715 0,0 0,0 0,0 l 0,0 c 0.5423,0.1047 1.0668,-0.25 1.1715,-0.7923 l 1.642,-8.5034 z"
           inkscape:connector-curvature="0"
           id="path240"
           style="fill:#000000;fill-opacity:1;fill-rule:evenodd;stroke:none" /><g
           transform="matrix(7.874014e-5,0,0,-7.874014e-5,228.0709,348.1309)"
           id="g242"><path
             d="m -0.1656941,0.01842111 0,584395.38157889"
             inkscape:connector-curvature="0"
             id="path244"
             style="fill:none;stroke:#000000;stroke-width:9525;stroke-linecap:butt;stroke-linejoin:round;stroke-miterlimit:10;stroke-opacity:1;stroke-dasharray:none" /></g><path
           d="m 228.0709,300.1309 -4.3638,7.4807 0,0 c -0.2783,0.4771 -0.1171,1.0894 0.3599,1.3677 l 0,0 c 0.4771,0.2783 1.0894,0.1171 1.3677,-0.3599 l 2.6362,-4.5192 2.6362,4.5192 0,0 c 0.2783,0.477 0.8906,0.6382 1.3677,0.3599 0,0 0,0 0,0 l 0,0 c 0.477,-0.2783 0.6381,-0.8906 0.3599,-1.3677 l -4.3638,-7.4807 z"
           inkscape:connector-curvature="0"
           id="path246"
           style="fill:#000000;fill-opacity:1;fill-rule:evenodd;stroke:none" /><g
           transform="matrix(7.874014e-5,0,0,-7.874014e-5,228.0709,270.1309)"
           id="g248"><path
             d="m -0.1656941,0.1707649 0,431995.2292351"
             inkscape:connector-curvature="0"
             id="path250"
             style="fill:none;stroke:#000000;stroke-width:9525;stroke-linecap:butt;stroke-linejoin:round;stroke-miterlimit:10;stroke-opacity:1;stroke-dasharray:none" /></g><path
           d="m 228.0709,234.1309 -4.3638,7.4807 0,0 c -0.2783,0.4771 -0.1171,1.0894 0.3599,1.3677 l 0,0 c 0.4771,0.2783 1.0894,0.1172 1.3677,-0.3599 l 2.6362,-4.5192 2.6362,4.5192 0,0 c 0.2783,0.4771 0.8906,0.6382 1.3677,0.3599 0,0 0,0 0,0 l 0,0 c 0.477,-0.2783 0.6381,-0.8906 0.3599,-1.3677 l -4.3638,-7.4807 z"
           inkscape:connector-curvature="0"
           id="path252"
           style="fill:#000000;fill-opacity:1;fill-rule:evenodd;stroke:none" /><g
           transform="matrix(-7.874014e-5,0,0,-7.874014e-5,324.0709,363.1309)"
           id="g254"><path
             d="M 0.1719807,-0.01087576 508195.2,0.7642708"
             inkscape:connector-curvature="0"
             id="path256"
             style="fill:none;stroke:#000000;stroke-width:9525;stroke-linecap:butt;stroke-linejoin:round;stroke-miterlimit:10;stroke-opacity:1;stroke-dasharray:none" /></g><path
           d="m 282.0709,363.1308 7.4807,-4.3637 0,0 c 0.4771,-0.2783 1.0894,-0.1172 1.3677,0.3599 l 0,0 c 0.2783,0.477 0.1171,1.0893 -0.3599,1.3676 l -4.5192,2.6362 4.5192,2.6363 0,0 c 0.477,0.2782 0.6382,0.8906 0.3599,1.3676 0,0 0,0 0,0 l 0,0 c -0.2783,0.4771 -0.8906,0.6382 -1.3677,0.3599 l -7.4807,-4.3638 z"
           inkscape:connector-curvature="0"
           id="path258"
           style="fill:#000000;fill-opacity:1;fill-rule:evenodd;stroke:none" /><g
           transform="matrix(-7.874014e-5,0,0,-7.874014e-5,303.0709,438.131)"
           id="g260"><path
             d="M -0.03700364,0.06749326 927611.7,148418.9"
             inkscape:connector-curvature="0"
             id="path262"
             style="fill:none;stroke:#000000;stroke-width:9525;stroke-linecap:butt;stroke-linejoin:round;stroke-miterlimit:10;stroke-opacity:1;stroke-dasharray:none" /></g><path
           d="m 228.0709,426.1309 8.0762,-3.1271 0,0 c 0.515,-0.1994 1.0942,0.0564 1.2936,0.5715 l 0,0 c 0.1994,0.515 -0.0564,1.0942 -0.5714,1.2936 l -4.879,1.8891 4.046,3.3171 0,0 c 0.4271,0.3502 0.4894,0.9802 0.1393,1.4073 0,0 0,0 0,0 l 0,0 c -0.3502,0.4271 -0.9803,0.4895 -1.4074,0.1393 l -6.6973,-5.4908 z"
           inkscape:connector-curvature="0"
           id="path264"
           style="fill:#000000;fill-opacity:1;fill-rule:evenodd;stroke:none" /><g
           transform="matrix(-7.874014e-5,0,0,7.874014e-5,175.0709,285.1309)"
           id="g266"><path
             d="m 0.07542306,-0.141468 412045.12457694,0 0,990600.141468 -374140.26,0"
             inkscape:connector-curvature="0"
             id="path268"
             style="fill:none;stroke:#000000;stroke-width:9525;stroke-linecap:butt;stroke-linejoin:round;stroke-miterlimit:10;stroke-opacity:1;stroke-dasharray:none" /></g><path
           d="m 174.0709,363.1309 -7.4808,-4.3638 0,0 c -0.477,-0.2783 -1.0893,-0.1171 -1.3676,0.3599 l 0,0 c -0.2783,0.4771 -0.1172,1.0894 0.3599,1.3677 l 4.5192,2.6362 -4.5192,2.6362 0,0 c -0.4771,0.2783 -0.6382,0.8906 -0.3599,1.3677 0,0 0,0 0,0 l 0,0 c 0.2783,0.477 0.8906,0.6381 1.3676,0.3599 l 7.4808,-4.3638 z"
           inkscape:connector-curvature="0"
           id="path270"
           style="fill:#000000;fill-opacity:1;fill-rule:evenodd;stroke:none" /><g
           transform="matrix(7.874014e-5,0,0,-7.874014e-5,228.0709,204.1309)"
           id="g272"><path
             d="m -0.1656941,0.1620978 0,355795.2379022"
             inkscape:connector-curvature="0"
             id="path274"
             style="fill:none;stroke:#000000;stroke-width:9525;stroke-linecap:butt;stroke-linejoin:round;stroke-miterlimit:10;stroke-opacity:1;stroke-dasharray:none" /></g><path
           d="m 228.0709,174.1309 -4.3638,7.4808 0,0 c -0.2783,0.477 -0.1171,1.0893 0.3599,1.3676 l 0,0 c 0.4771,0.2783 1.0894,0.1172 1.3677,-0.3599 l 2.6362,-4.5192 2.6362,4.5192 0,0 c 0.2783,0.4771 0.8906,0.6382 1.3677,0.3599 0,0 0,0 0,0 l 0,0 c 0.477,-0.2783 0.6381,-0.8906 0.3599,-1.3676 l -4.3638,-7.4808 z"
           inkscape:connector-curvature="0"
           id="path276"
           style="fill:#000000;fill-opacity:1;fill-rule:evenodd;stroke:none" /><g
           transform="matrix(7.874014e-5,0,0,-7.874014e-5,228.0709,144.1309)"
           id="g278"><path
             d="m -0.1656941,0.02928531 0,358970.17071469"
             inkscape:connector-curvature="0"
             id="path280"
             style="fill:none;stroke:#000000;stroke-width:9525;stroke-linecap:butt;stroke-linejoin:round;stroke-miterlimit:10;stroke-opacity:1;stroke-dasharray:none" /></g><path
           d="m 228.0709,113.8809 -4.3638,7.4808 0,0 c -0.2783,0.477 -0.1171,1.0893 0.3599,1.3676 l 0,0 c 0.4771,0.2783 1.0894,0.1172 1.3677,-0.3599 l 2.6362,-4.5192 2.6362,4.5192 0,0 c 0.2783,0.4771 0.8906,0.6382 1.3677,0.3599 0,0 0,0 0,0 l 0,0 c 0.477,-0.2783 0.6381,-0.8906 0.3599,-1.3676 l -4.3638,-7.4808 z"
           inkscape:connector-curvature="0"
           id="path282"
           style="fill:#000000;fill-opacity:1;fill-rule:evenodd;stroke:none" /><g
           transform="translate(235.2709,134.5309)"
           id="g284"><text
             transform="matrix(1,0,0,-1,0,-14)"
             id="text286"><tspan
               x="0 8.8185997 12.7078 15.8186 23.6054 31.3922 39.179001 42.289799 50.076599 57.8634 61.752602 66.414597 74.201401 77.312202 85.098999 92.885803 99.885803 107.6726 111.5618 114.6726 122.4594 129.4594 132.57021 140.35699 148.1438 155.9306 162.9306 166.81979 169.9306 173.81979"
               y="0"
               id="tspan288"
               style="font-size:14px;font-style:italic;font-variant:normal;writing-mode:lr-tb;fill:#000000;fill-opacity:1;fill-rule:nonzero;stroke:none;font-family:Arial;-inkscape-font-specification:Arial-ItalicMT">A labeled release includes it </tspan></text>
</g><g
           transform="translate(235.2709,194.7653)"
           id="g290"><text
             transform="matrix(1,0,0,-1,0,-14)"
             id="text292"><tspan
               x="0 10.1108 17.8976 24.8976 32.684399 35.7952 43.582001 51.368801 59.155602 63.8176 67.706802 74.706802 82.493599 94.155602 105.8176 108.9284 112.8176 116.7068 124.4936 132.2804 136.1696 140.05881 147.8456 151.7348 163.3968 171.18359 174.2944 182.08121 185.9704 189.08121 192.192 199.97881 207.76559 211.6548 218.6548 221.76559 229.5524 233.4416 241.22839 249.0152 252.9044 260.69119 267.69119 275.478 283.2648 291.05161 298.83841 303.5004"
               y="0"
               id="tspan294"
               style="font-size:14px;font-style:italic;font-variant:normal;writing-mode:lr-tb;fill:#000000;fill-opacity:1;fill-rule:nonzero;stroke:none;font-family:Arial;-inkscape-font-specification:Arial-ItalicMT">Developer committed to main line via gatekeeper </tspan></text>
</g><g
           transform="translate(235.2709,254.7653)"
           id="g296"><text
             transform="matrix(1,0,0,-1,0,-14)"
             id="text298"><tspan
               x="0 10.1108 17.8976 24.8976 28.0084 35.7952 45.905998 53.692799 58.354801 62.243999 69.244003 72.354797 80.141602 87.928398 95.715202 103.502 107.3912 115.178 119.0672 122.9564"
               y="0"
               id="tspan300"
               style="font-size:14px;font-style:italic;font-variant:normal;writing-mode:lr-tb;fill:#000000;fill-opacity:1;fill-rule:nonzero;stroke:none;font-family:Arial;-inkscape-font-specification:Arial-ItalicMT">Reviewer signed off </tspan></text>
</g><g
           transform="translate(235.2709,326.5309)"
           id="g302"><text
             transform="matrix(1,0,0,-1,0,-14)"
             id="text304"><tspan
               x="0 10.1108 17.8976 24.8976 32.684399 35.7952 43.582001 51.368801 59.155602 63.8176 67.706802 74.706802 82.493599 94.155602 101.9424 105.0532 112.84 116.7292 124.516 131.51601 135.4052 145.51601 153.3028 157.9648 164.9648"
               y="0"
               id="tspan306"
               style="font-size:14px;font-style:italic;font-variant:normal;writing-mode:lr-tb;fill:#000000;fill-opacity:1;fill-rule:nonzero;stroke:none;font-family:Arial;-inkscape-font-specification:Arial-ItalicMT">Developer completes work </tspan></text>
</g><g
           transform="translate(151.2709,344.5309)"
           id="g308"><text
             transform="matrix(1,0,0,-1,0,-11.2)"
             id="text310"><tspan
               x="0 10.1108 17.8976 24.8976 28.0084 35.7952 45.905998 53.692799 58.354801"
               y="0"
               id="tspan312"
               style="font-size:14px;font-style:italic;font-variant:normal;writing-mode:lr-tb;fill:#000000;fill-opacity:1;fill-rule:nonzero;stroke:none;font-family:Arial;-inkscape-font-specification:Arial-ItalicMT">Reviewer </tspan></text>
</g><g
           transform="translate(151.2709,331.5309)"
           id="g314"><text
             transform="matrix(1,0,0,-1,3.8892,-11.2)"
             id="text316"><tspan
               x="0 7.7867999 15.5736 22.573601"
               y="0"
               id="tspan318"
               style="font-size:14px;font-style:italic;font-variant:normal;writing-mode:lr-tb;fill:#000000;fill-opacity:1;fill-rule:nonzero;stroke:none;font-family:Arial;-inkscape-font-specification:Arial-ItalicMT">has </tspan></text>
</g><g
           transform="translate(151.2709,318.5309)"
           id="g320"><text
             transform="matrix(1,0,0,-1,0,-11.2)"
             id="text322"><tspan
               x="0 3.1108 10.1108 17.1108 24.8976 32.684399 39.684399"
               y="0"
               id="tspan324"
               style="font-size:14px;font-style:italic;font-variant:normal;writing-mode:lr-tb;fill:#000000;fill-opacity:1;fill-rule:nonzero;stroke:none;font-family:Arial;-inkscape-font-specification:Arial-ItalicMT">issues </tspan></text>
</g><g
           transform="matrix(-7.874014e-5,0,0,-7.874014e-5,180.0709,495.1309)"
           id="g326"><path
             d="M 0.00944409,0.118885 883356,0.118885 883356,4267200 l -781951.1,0"
             inkscape:connector-curvature="0"
             id="path328"
             style="fill:none;stroke:#000000;stroke-width:9525;stroke-linecap:butt;stroke-linejoin:round;stroke-miterlimit:10;stroke-opacity:1;stroke-dasharray:none" /></g><path
           d="m 174.0709,159.1309 -7.4808,4.3638 0,0 c -0.477,0.2783 -1.0894,0.1171 -1.3676,-0.3599 l 0,0 c -0.2783,-0.4771 -0.1172,-1.0894 0.3599,-1.3677 l 4.5192,-2.6362 -4.5192,-2.6362 0,0 c -0.4771,-0.2783 -0.6382,-0.8906 -0.3599,-1.3677 0,0 0,0 0,0 l 0,0 c 0.2782,-0.477 0.8906,-0.6381 1.3676,-0.3599 l 7.4808,4.3638 z"
           inkscape:connector-curvature="0"
           id="path330"
           style="fill:#000000;fill-opacity:1;fill-rule:evenodd;stroke:none" /><g
           transform="translate(31.2709,374.5309)"
           id="g332"><text
             transform="matrix(1,0,0,-1,24.09668,-11.2)"
             id="text334"><tspan
               x="0 8.5511999 16.337999 23.337999 27.2272 35.014 42.014 42.014"
               y="0"
               id="tspan336"
               style="font-size:14px;font-style:italic;font-variant:normal;writing-mode:lr-tb;fill:#000000;fill-opacity:1;fill-rule:nonzero;stroke:none;font-family:Arial;-inkscape-font-specification:Arial-ItalicMT">Fastest </tspan></text>
</g><g
           transform="translate(31.2709,361.5309)"
           id="g338"><text
             transform="matrix(1,0,0,-1,41.2002,-11.2)"
             id="text340"><tspan
               x="0 9.3380003 17.1248 21.014 24.9102"
               y="0"
               id="tspan342"
               style="font-size:14px;font-style:italic;font-variant:normal;writing-mode:lr-tb;fill:#000000;fill-opacity:1;fill-rule:nonzero;stroke:none;font-family:Arial;-inkscape-font-specification:Arial-ItalicMT">Path </tspan></text>
</g><path
           d="m 276.0709,495.1309 203.9999,-57"
           inkscape:connector-curvature="0"
           id="path344"
           style="fill:#c6e6e9;fill-opacity:1;fill-rule:evenodd;stroke:none" /><g
           transform="matrix(7.874014e-5,0,0,-7.874014e-5,276.0709,495.1309)"
           id="g346"><path
             d="M -0.01573074,0.118885 2590800,723900.2"
             inkscape:connector-curvature="0"
             id="path348"
             style="fill:none;stroke:#000000;stroke-width:9525;stroke-linecap:butt;stroke-linejoin:round;stroke-miterlimit:10;stroke-opacity:1;stroke-dasharray:none" /></g><path
           d="m 348.0709,453.1309 131.9999,-15"
           inkscape:connector-curvature="0"
           id="path350"
           style="fill:#c6e6e9;fill-opacity:1;fill-rule:evenodd;stroke:none" /><g
           transform="matrix(7.874014e-5,0,0,-7.874014e-5,348.0709,453.1309)"
           id="g352"><path
             d="M 0.1248943,0.2009163 1676400,190500.2"
             inkscape:connector-curvature="0"
             id="path354"
             style="fill:none;stroke:#000000;stroke-width:9525;stroke-linecap:butt;stroke-linejoin:round;stroke-miterlimit:10;stroke-opacity:1;stroke-dasharray:none" /></g><path
           d="m 450.0709,411.1309 30,27"
           inkscape:connector-curvature="0"
           id="path356"
           style="fill:#c6e6e9;fill-opacity:1;fill-rule:evenodd;stroke:none" /><g
           transform="matrix(7.874014e-5,0,0,7.874014e-5,450.0709,411.1309)"
           id="g358"><path
             d="M -0.175887,0.1046258 380999.9,342900.2"
             inkscape:connector-curvature="0"
             id="path360"
             style="fill:none;stroke:#000000;stroke-width:9525;stroke-linecap:butt;stroke-linejoin:round;stroke-miterlimit:10;stroke-opacity:1;stroke-dasharray:none" /></g><path
           d="m 432.0709,363.1309 48,75"
           inkscape:connector-curvature="0"
           id="path362"
           style="fill:#c6e6e9;fill-opacity:1;fill-rule:evenodd;stroke:none" /><g
           transform="matrix(7.874014e-5,0,0,7.874014e-5,432.0709,363.1309)"
           id="g364"><path
             d="M -0.2110432,0.01087576 609599.9,952500.2"
             inkscape:connector-curvature="0"
             id="path366"
             style="fill:none;stroke:#000000;stroke-width:9525;stroke-linecap:butt;stroke-linejoin:round;stroke-miterlimit:10;stroke-opacity:1;stroke-dasharray:none" /></g><g
           transform="translate(517.2709,512.5309)"
           id="g368"><text
             transform="matrix(1,0,0,-1,0,-14)"
             id="text370"><tspan
               x="0 3.8892 10.8892 17.8892 25.676001 33.462799 37.352001 40.462799 47.462799 51.352001 54.462799 62.249599 69.249603 77.0364 80.147202 83.258003 91.0448"
               y="0"
               id="tspan372"
               style="font-size:14px;font-style:italic;font-variant:normal;writing-mode:lr-tb;fill:#000000;fill-opacity:1;fill-rule:nonzero;stroke:none;font-family:Arial;-inkscape-font-specification:Arial-ItalicMT">Issue is invalid </tspan></text>
</g><g
           transform="translate(553.2709,446.7653)"
           id="g374"><text
             transform="matrix(1,0,0,-1,0,-14)"
             id="text376"><tspan
               x="0 3.8892 10.8892 17.8892 25.676001 33.462799 37.352001 40.462799 47.462799 51.352001 56.014 63.8008 71.587601 79.374397 87.161201 94.947998 102.7348 110.5216 114.4108 118.3 128.4108 131.52161 135.4108 143.1976 147.08681 154.8736 162.6604 170.4472 174.3364 182.1232 189.91 194.57201"
               y="0"
               id="tspan378"
               style="font-size:14px;font-style:italic;font-variant:normal;writing-mode:lr-tb;fill:#000000;fill-opacity:1;fill-rule:nonzero;stroke:none;font-family:Arial;-inkscape-font-specification:Arial-ItalicMT">Issue is redundant with another </tspan></text>
</g><g
           transform="translate(595.2708,368.5309)"
           id="g380"><text
             transform="matrix(1,0,0,-1,0,-14)"
             id="text382"><tspan
               x="0 3.8892 10.8892 17.8892 25.676001 33.462799 37.352001 40.462799 47.462799 51.352001 56.014 63.8008 70.800797 78.587601 81.698402 88.698402 96.485199 104.272"
               y="0"
               id="tspan384"
               style="font-size:14px;font-style:italic;font-variant:normal;writing-mode:lr-tb;fill:#000000;fill-opacity:1;fill-rule:nonzero;stroke:none;font-family:Arial;-inkscape-font-specification:Arial-ItalicMT">Issue is resolved </tspan></text>
</g><g
           transform="translate(595.2708,352.5309)"
           id="g386"><text
             transform="matrix(1,0,0,-1,0,-14)"
             id="text388"><tspan
               x="0 10.1108 13.2216 17.1108 24.8976 32.684399 40.471199 44.360401 48.249599 56.0364 63.8232 70.823196 74.712402 81.712402 89.499199 97.286003 105.0728 112.8596 120.6464 127.6464"
               y="0"
               id="tspan390"
               style="font-size:14px;font-style:italic;font-variant:normal;writing-mode:lr-tb;fill:#000000;fill-opacity:1;fill-rule:nonzero;stroke:none;font-family:Arial;-inkscape-font-specification:Arial-ItalicMT">without any changes </tspan></text>
</g><g
           transform="matrix(-7.874014e-5,0,0,-7.874014e-5,366.0709,411.1309)"
           id="g392"><path
             d="M 25204.89,-0.1046258 1041595,1.058094"
             inkscape:connector-curvature="0"
             id="path394"
             style="fill:none;stroke:#000000;stroke-width:9525;stroke-linecap:butt;stroke-linejoin:round;stroke-miterlimit:10;stroke-opacity:1;stroke-dasharray:none" /></g><path
           d="m 366.0709,411.1309 -7.4808,4.3638 0,0 c -0.4771,0.2782 -1.0894,0.1171 -1.3677,-0.3599 l 0,0 c -0.2782,-0.4771 -0.1171,-1.0894 0.3599,-1.3677 l 4.5193,-2.6362 -4.5193,-2.6362 0,0 c -0.477,-0.2783 -0.6381,-0.8906 -0.3599,-1.3677 0,0 0,0 0,0 l 0,0 c 0.2783,-0.477 0.8906,-0.6382 1.3677,-0.3599 l 7.4808,4.3638 z"
           inkscape:connector-curvature="0"
           id="path396"
           style="fill:#000000;fill-opacity:1;fill-rule:evenodd;stroke:none" /><path
           d="m 282.0709,411.1308 7.4807,-4.3638 0,0 c 0.4771,-0.2783 1.0894,-0.1171 1.3677,0.3599 l 0,0 c 0.2783,0.4771 0.1171,1.0894 -0.3599,1.3677 l -4.5192,2.6362 4.5192,2.6362 0,0 c 0.477,0.2783 0.6382,0.8906 0.3599,1.3677 0,0 0,0 0,0 l 0,0 c -0.2783,0.477 -0.8906,0.6382 -1.3677,0.3599 l -7.4807,-4.3638 z"
           inkscape:connector-curvature="0"
           id="path398"
           style="fill:#000000;fill-opacity:1;fill-rule:evenodd;stroke:none" /><g
           transform="matrix(-7.874014e-5,0,0,7.874014e-5,408.0708,426.1309)"
           id="g400"><path
             d="M 22985.18,10343.3 739015.2,332557"
             inkscape:connector-curvature="0"
             id="path402"
             style="fill:none;stroke:#000000;stroke-width:9525;stroke-linecap:butt;stroke-linejoin:round;stroke-miterlimit:10;stroke-opacity:1;stroke-dasharray:none" /></g><path
           d="m 408.0708,426.1309 -8.6126,-0.9096 0,0 c -0.5492,-0.058 -1.0415,0.3402 -1.0995,0.8894 l 0,0 c -0.058,0.5493 0.3402,1.0416 0.8895,1.0995 l 5.2029,0.5495 -3.0393,4.2586 0,0 c -0.3209,0.4495 -0.2165,1.074 0.233,1.3949 0,0 0,0 0,0 l 0,0 c 0.4495,0.3208 1.074,0.2165 1.3949,-0.2331 l 5.0311,-7.0492 z"
           inkscape:connector-curvature="0"
           id="path404"
           style="fill:#000000;fill-opacity:1;fill-rule:evenodd;stroke:none" /><path
           d="m 348.0708,453.1309 8.6126,0.9096 0,0 c 0.5493,0.058 1.0415,-0.3402 1.0996,-0.8895 l 0,0 c 0.0579,-0.5492 -0.3403,-1.0415 -0.8895,-1.0995 l -5.203,-0.5495 3.0394,-4.2585 0,0 c 0.3208,-0.4496 0.2165,-1.0741 -0.233,-1.3949 0,0 0,0 0,0 l 0,0 c -0.4496,-0.3208 -1.0741,-0.2165 -1.3949,0.233 l -5.0312,7.0493 z"
           inkscape:connector-curvature="0"
           id="path406"
           style="fill:#000000;fill-opacity:1;fill-rule:evenodd;stroke:none" /><g
           transform="matrix(-7.874014e-5,0,0,-7.874014e-5,408.0708,396.1309)"
           id="g408"><path
             d="M 21613.17,12967.74 359387.2,215632.1"
             inkscape:connector-curvature="0"
             id="path410"
             style="fill:none;stroke:#000000;stroke-width:9525;stroke-linecap:butt;stroke-linejoin:round;stroke-miterlimit:10;stroke-opacity:1;stroke-dasharray:none" /></g><path
           d="m 408.0708,396.1309 -8.6598,-0.1069 0,0 c -0.5523,-0.007 -0.9944,-0.46 -0.9876,-1.0123 l 0,0 c 0.007,-0.5522 0.46,-0.9944 1.0123,-0.9876 l 5.2315,0.0646 -2.5189,-4.5856 0,0 c -0.2659,-0.4841 -0.089,-1.0921 0.3951,-1.358 0,0 0,0 0,0 l 0,0 c 0.484,-0.2659 1.092,-0.089 1.3579,0.3951 l 4.1695,7.5907 z"
           inkscape:connector-curvature="0"
           id="path412"
           style="fill:#000000;fill-opacity:1;fill-rule:evenodd;stroke:none" /><path
           d="m 378.0708,378.1309 8.6599,0.1069 0,0 c 0.5522,0.007 0.9944,0.46 0.9876,1.0123 l 0,0 c -0.007,0.5522 -0.4601,0.9944 -1.0123,0.9875 l -5.2315,-0.0645 2.5188,4.5856 0,0 c 0.2659,0.4841 0.0891,1.0921 -0.395,1.3579 0,0 0,0 0,0 l 0,0 c -0.484,0.2659 -1.092,0.0891 -1.3579,-0.395 l -4.1696,-7.5907 z"
           inkscape:connector-curvature="0"
           id="path414"
           style="fill:#000000;fill-opacity:1;fill-rule:evenodd;stroke:none" /></g></g></g></svg>